<svg xmlns="http://www.w3.org/2000/svg" version="1.1" x="0" y="0" width="141.03" height="414.61" viewBox="0 0 141.03 414.61" enable-background="new 0 0 141.028 414.607" xml:space="preserve"><path fill="#FFFFFF" d="M0 414.6L35.6 90.05l76.06 0.1 23.92 324.46c0 0-31.42-3.16-67.79-3.16C31.42 411.45 0 414.6 0 414.6z"/><circle fill="#FFF200" cx="73.46" cy="32.68" r="21.29"/><path d="M63.16 310.58C43.58 330.75 9.15 368.29-0.06 413.53l10.97-100.6c3.71-34.06 24.39-62.13 50.88-85.44 29.25-25.74 52.43-38.43 56.26-52.59l5.57 75.77C124.56 263.67 90.81 282.12 63.16 310.58zM75.5 411.5c24.57 0 60.15 3.11 60.15 3.11l-5.7-77.63C125.97 363.73 95.75 391.73 75.5 411.5zM110.51 74.54l-0.97-13.18c1.31-1.24 2.02-2.56 2.02-3.94 0-6.76-17.06-12.23-38.1-12.23 -21.04 0-38.1 5.48-38.1 12.23 0 1.67 1.05 3.27 2.94 4.72l-1.34 12.29C18.27 78.28 5.89 85.02 5.89 92.69c0 9.3 18.21 17.22 43.79 20.31 -9.03 10.78-17.64 24.96-21.61 42.46l-7.39 67.83c9.71-33.65 31.87-60.88 48.95-74.27 15.36-12.04 37.19-30.67 42.79-38.61 17.31-3.93 28.62-10.4 28.62-17.72C141.03 85.1 128.89 78.42 110.51 74.54zM49.04 26.91c-5.63-1.21-9.09-2.84-9.09-4.63 0-3.74 15-6.77 33.5-6.77h0c18.5 0 33.5 3.03 33.5 6.77 0 1.79-3.45 3.42-9.09 4.64 0 0 8.87-0.01 13.11-4.82C115.23 17.28 76.4 0 73.46 0c-2.95 0-41.77 17.28-37.53 22.09C40.17 26.9 49.04 26.91 49.04 26.91z"/></svg>